<svg width="960" height="560" viewBox="0 0 960 560" fill="none" xmlns="http://www.w3.org/2000/svg">
  <rect width="960" height="560" rx="28" fill="#f3f4f6"/>
  <rect x="36" y="38" width="888" height="484" rx="18" fill="#ffffff" stroke="#d1d5db"/>
  <rect x="36" y="38" width="888" height="76" rx="18" fill="#f8fafc"/>
  <circle cx="72" cy="76" r="13" fill="#ff5f57"/>
  <circle cx="110" cy="76" r="13" fill="#febc2e"/>
  <circle cx="148" cy="76" r="13" fill="#28c840"/>
  <text x="480" y="84" text-anchor="middle" font-family="-apple-system, BlinkMacSystemFont, 'Segoe UI', sans-serif" font-size="28" font-weight="700" fill="#374151">WeSight 2026.6.1-preview.1-arm64</text>
  <text x="480" y="154" text-anchor="middle" font-family="-apple-system, BlinkMacSystemFont, 'Segoe UI', sans-serif" font-size="24" fill="#6b7280">2 个项目</text>
  <rect x="190" y="258" width="146" height="146" rx="32" fill="#0f3b33"/>
  <rect x="202" y="270" width="122" height="122" rx="28" fill="url(#iconGradient)"/>
  <path d="M232 326c0-29 16-52 37-52s37 23 37 52c0 27-17 45-37 45s-37-18-37-45z" fill="#ffe0a3"/>
  <rect x="240" y="304" width="58" height="38" rx="14" fill="#162b30"/>
  <path d="M252 323c7 9 13 9 20 0m12 0c7 9 13 9 20 0" stroke="#ffd166" stroke-width="4" stroke-linecap="round"/>
  <circle cx="269" cy="355" r="9" fill="#ffbe5b"/>
  <text x="263" y="448" text-anchor="middle" font-family="-apple-system, BlinkMacSystemFont, 'Segoe UI', sans-serif" font-size="28" font-weight="600" fill="#111827">WeSight.app</text>
  <path d="M430 319h96m0 0-42-42m42 42-42 42" stroke="#6b7280" stroke-width="8" stroke-linecap="round" stroke-linejoin="round" stroke-dasharray="14 12"/>
  <rect x="640" y="284" width="178" height="120" rx="20" fill="#39bdf8"/>
  <path d="M640 314c0-17 14-30 30-30h43l22 24h53c17 0 30 13 30 30v66H640v-90z" fill="#2aa7e8"/>
  <path d="M723 331l-24 45m31-45 24 45m-44-17h33" stroke="#0b78bc" stroke-width="10" stroke-linecap="round" stroke-linejoin="round"/>
  <text x="729" y="448" text-anchor="middle" font-family="-apple-system, BlinkMacSystemFont, 'Segoe UI', sans-serif" font-size="28" font-weight="600" fill="#111827">Applications</text>
  <text x="480" y="506" text-anchor="middle" font-family="-apple-system, BlinkMacSystemFont, 'Segoe UI', sans-serif" font-size="22" fill="#6b7280">将 WeSight.app 拖到 Applications 文件夹完成安装</text>
  <defs>
    <linearGradient id="iconGradient" x1="202" y1="270" x2="324" y2="392" gradientUnits="userSpaceOnUse">
      <stop stop-color="#f8e8a8"/>
      <stop offset="1" stop-color="#0c5145"/>
    </linearGradient>
  </defs>
</svg>
